<svg xmlns="http://www.w3.org/2000/svg" xmlns:xlink="http://www.w3.org/1999/xlink" version="1.1" x="0px" y="0px" viewBox="0 0 100 125" style="enable-background:new 0 0 100 100;" xml:space="preserve"><path d="M33.2,10.1c-0.3,2.3-0.5,4.7-0.5,7c0,30.4,24.7,55.1,55.1,55.1c0.6,0,1.2,0,1.8,0c-7.7,13.5-22.2,22.1-38.2,22.1  c-24.3,0-44.1-19.8-44.1-44.1C7.3,32.8,17.8,17.2,33.2,10.1 M40.6,1.8C18.4,6.7,1.8,26.5,1.8,50.2c0,27.4,22.2,49.6,49.6,49.6  c22,0,40.7-14.4,47.2-34.3c-3.5,0.8-7.1,1.2-10.8,1.2c-27.4,0-49.6-22.2-49.6-49.6C38.2,11.8,39.1,6.6,40.6,1.8L40.6,1.8z"/><text x="0" y="115" fill="#000000" font-size="5px" font-weight="bold" font-family="'Helvetica Neue', Helvetica, Arial-Unicode, Arial, Sans-serif">Created by Vishal patel</text><text x="0" y="120" fill="#000000" font-size="5px" font-weight="bold" font-family="'Helvetica Neue', Helvetica, Arial-Unicode, Arial, Sans-serif">from the Noun Project</text></svg>