<svg xmlns="http://www.w3.org/2000/svg" version="1.1" viewBox="0 0 64 80" x="0px" y="0px"><title>wake-up</title><path d="M30.441 2.941v5.618h3.118v-5.618h-3.118zM51.548 10.397l-3.971 3.974 2.202 2.202 3.974-3.971-2.206-2.206zM12.618 10.423l-2.202 2.202 3.971 3.974 2.206-2.206-3.974-3.971zM32 12.941c-10.487 0-19.059 8.572-19.059 19.059s8.572 19.059 19.059 19.059c10.487 0 19.059-8.572 19.059-19.059s-8.572-19.059-19.059-19.059zM32 16.059c8.764 0 15.941 7.177 15.941 15.941s-7.178 15.941-15.941 15.941c-8.764 0-15.941-7.178-15.941-15.941s7.178-15.941 15.941-15.941zM2.941 30.441v3.118h5.618v-3.118h-5.618zM55.441 30.441v3.118h5.618v-3.118h-5.618zM14.419 47.335l-3.971 3.974 2.206 2.202 3.971-3.971-2.206-2.206zM49.629 47.474l-2.206 2.206 3.974 3.971 2.202-2.206-3.971-3.971zM30.441 55.441v5.618h3.118v-5.618h-3.118z"/><text x="0" y="79" fill="#000000" font-size="5px" font-weight="bold" font-family="'Helvetica Neue', Helvetica, Arial-Unicode, Arial, Sans-serif">Created by shuai tawf</text><text x="0" y="84" fill="#000000" font-size="5px" font-weight="bold" font-family="'Helvetica Neue', Helvetica, Arial-Unicode, Arial, Sans-serif">from the Noun Project</text></svg>